<svg width="122" height="18" viewBox="0 0 122 18" fill="none" xmlns="http://www.w3.org/2000/svg">
<path d="M44.3593 11.7105C44.3593 12.463 44.5563 13.032 44.9495 13.4169C45.3428 13.8021 45.9063 13.9945 46.6407 13.9945H58.5452V17.9854H45.8279C44.9012 17.9854 44.0534 17.8585 43.2844 17.6043C42.5147 17.3511 41.8553 16.9739 41.3045 16.4758C40.754 15.9764 40.3255 15.3594 40.0196 14.6249C39.7137 13.8896 39.5609 13.0495 39.5609 12.1042V5.88117C39.5609 4.93614 39.7137 4.10062 40.0196 3.37414C40.3255 2.64765 40.754 2.03508 41.3045 1.53602C41.8553 1.03729 42.5147 0.656214 43.2844 0.393776C44.0534 0.131096 44.9012 0 45.8279 0H58.5452V3.99086H46.6407C45.9063 3.99086 45.3428 4.1836 44.9495 4.5685C44.5563 4.95397 44.3593 5.52273 44.3593 6.27527V11.7105Z" fill="#244CA7"/>
<path d="M75.4839 6.27527C75.4839 5.52273 75.2872 4.95397 74.8937 4.5685C74.5004 4.1836 73.9366 3.99086 73.2025 3.99086H68.4302C67.696 3.99086 67.1322 4.1836 66.739 4.5685C66.3457 4.95397 66.1491 5.52273 66.1491 6.27527V11.7105C66.1491 12.463 66.3457 13.032 66.739 13.4169C67.1322 13.8021 67.696 13.9945 68.4302 13.9945H73.2025C73.9366 13.9945 74.5004 13.8021 74.8937 13.4169C75.2872 13.032 75.4839 12.463 75.4839 11.7105V6.27527ZM61.7831 3.37414C62.0889 2.64765 62.5174 2.03508 63.0679 1.53602C63.6187 1.03729 64.2781 0.656214 65.0475 0.393776C65.8168 0.131096 66.6643 0 67.5912 0H74.0153C74.9416 0 75.7895 0.131096 76.5588 0.393776C77.3278 0.656214 77.992 1.03729 78.5517 1.53602C79.1107 2.03508 79.5434 2.64765 79.8496 3.37414C80.1552 4.10062 80.3086 4.93614 80.3086 5.88117V12.1042C80.3086 13.0495 80.1552 13.8896 79.8496 14.6249C79.5434 15.3594 79.1107 15.9764 78.5517 16.4758C77.992 16.9739 77.3278 17.3511 76.5588 17.6043C75.7895 17.8585 74.9416 17.9854 74.0153 17.9854H67.5912C66.6643 17.9854 65.8168 17.8585 65.0475 17.6043C64.2781 17.3511 63.6187 16.9739 63.0679 16.4758C62.5174 15.9764 62.0889 15.3594 61.7831 14.6249C61.4771 13.8896 61.3243 13.0495 61.3243 12.1042V5.88117C61.3243 4.93614 61.4771 4.10062 61.7831 3.37414Z" fill="#244CA7"/>
<path d="M102.15 17.9854H96.2506L89.2231 11.0015H83.0876V7.01031H94.9658C95.5602 7.01031 96.0758 6.89232 96.5125 6.65602C96.95 6.41964 97.1687 6.03889 97.1687 5.51378C97.1687 4.97115 96.95 4.58153 96.5125 4.34523C96.0758 4.10917 95.5602 3.99086 94.9658 3.99086H83.0876V0H95.779C96.6352 0 97.4305 0.113914 98.1649 0.341337C98.8992 0.569088 99.5367 0.897318 100.079 1.32578C100.621 1.75482 101.062 2.28889 101.403 2.9276C101.744 3.56655 101.967 4.29751 102.072 5.12V5.88117C101.914 7.56189 101.25 8.83507 100.079 9.70153C98.9073 10.568 97.3167 11.0015 95.3065 11.0015L102.15 17.9854Z" fill="#244CA7"/>
<path d="M104.851 -1.90735e-06H122V3.99086H104.851V-1.90735e-06Z" fill="#244CA7"/>
<path d="M104.851 7.01031H122V11.0015H104.851V7.01031Z" fill="#244CA7"/>
<path d="M104.851 13.9945H122V17.9854H104.851V13.9945Z" fill="#244CA7"/>
<path d="M25.9523 7.01031V11.0015H36.7815V7.01031H25.9523Z" fill="#DD1E26"/>
<path d="M14.1595 11.7251C14.1595 12.478 13.9629 13.047 13.5696 13.4315C13.1761 13.817 12.6126 14.0092 11.8781 14.0092H7.10613C6.37173 14.0092 5.8079 13.817 5.41464 13.4315C5.0214 13.047 4.82477 12.478 4.82477 11.7251V6.29018C4.82477 5.53764 5.0214 4.96863 5.41464 4.58316C5.8079 4.19858 6.37173 4.00585 7.10613 4.00585H11.8781C12.6126 4.00585 13.1761 4.19858 13.5696 4.58316C13.9629 4.96863 14.1595 5.53764 14.1595 6.29018V11.7251ZM18.8051 4.28889C18.7324 3.97401 18.6438 3.67062 18.5253 3.3888C18.2194 2.66264 17.7865 2.04966 17.2274 1.55093C16.6677 1.05187 16.0038 0.6712 15.2345 0.408762C14.4651 0.146 13.6173 0.0146599 12.691 0.0146599H6.2669C5.34032 0.0146599 4.49251 0.146 3.72349 0.408762C2.95382 0.6712 2.29438 1.05187 1.74358 1.55093C1.19309 2.04966 0.764581 2.66264 0.458686 3.3888C0.152789 4.1152 0 4.95112 0 5.89616V12.1189C0 13.0642 0.152789 13.9042 0.458686 14.6396C0.764581 15.375 1.19309 15.9911 1.74358 16.4904C2.29438 16.9895 2.95382 17.3658 3.72349 17.619C4.49251 17.8731 5.34032 18 6.2669 18H12.691C13.6173 18 14.4651 17.8731 15.2345 17.619C16.0038 17.3658 16.6677 16.9895 17.2274 16.4904C17.7865 15.9911 18.2194 15.375 18.5253 14.6396C18.6352 14.3749 18.7185 14.0925 18.789 13.8005L25.2776 0.634232H20.4528L18.8051 4.28889Z" fill="#DD1E26"/>
<path d="M19.5649 16.1393L20.2587 17.9389H25.1559L22.0159 11.1844L19.5649 16.1393Z" fill="#DD1E26"/>
</svg>
